<svg width="24" height="24" viewBox="0 0 24 24" fill="none" xmlns="http://www.w3.org/2000/svg">
<path d="M22.0002 4H17.0002V2C17.0002 1.46957 16.7895 0.960859 16.4145 0.585786C16.0394 0.210714 15.5307 0 15.0002 0L9.00024 0C8.46981 0 7.9611 0.210714 7.58603 0.585786C7.21096 0.960859 7.00024 1.46957 7.00024 2V4H2.00024V6H4.00024V21C4.00024 21.7956 4.31631 22.5587 4.87892 23.1213C5.44153 23.6839 6.20459 24 7.00024 24H17.0002C17.7959 24 18.559 23.6839 19.1216 23.1213C19.6842 22.5587 20.0002 21.7956 20.0002 21V6H22.0002V4ZM9.00024 2H15.0002V4H9.00024V2ZM18.0002 21C18.0002 21.2652 17.8949 21.5196 17.7074 21.7071C17.5198 21.8946 17.2655 22 17.0002 22H7.00024C6.73503 22 6.48067 21.8946 6.29314 21.7071C6.1056 21.5196 6.00024 21.2652 6.00024 21V6H18.0002V21Z" fill="#939393"/>
<path d="M11 9.99902H9V17.999H11V9.99902Z" fill="#939393"/>
<path d="M15.0005 9.99902H13.0005V17.999H15.0005V9.99902Z" fill="#939393"/>
</svg>
